<svg width="20" height="35" viewBox="0 0 20 35" fill="none" xmlns="http://www.w3.org/2000/svg">
<path d="M0.012612 31.5819C0.012612 31.4113 0.353921 31.3717 0.353921 31.2018C0.353921 30.4882 0.353921 29.7745 0.353921 29.0617C0.353921 28.8383 0.012612 28.7072 0.012612 28.4838C0.012612 28.4256 0.012612 28.3674 0.012612 28.3092C0.012612 28.1083 0.012612 27.9074 0.012612 27.7065C0.012612 27.5894 0.012612 27.4715 0.012612 27.3536C0.012612 27.1953 0.353921 27.1814 0.353921 27.0231C0.353921 26.4413 0.353921 25.865 0.353921 25.2917C0.353921 25.0668 0.353921 24.8403 0.353921 24.6138C0.353921 24.433 0.0335563 24.3562 0.0335563 24.1755C0.0335563 24.1251 0.012612 24.0754 0.012612 24.025C0.012612 23.7582 0.012612 23.3323 0.012612 23.0655C0.012612 23.0298 0.012612 22.9933 0.012612 22.9569C0.012612 22.7924 0.353921 22.7645 0.353921 22.6001C0.353921 22.3929 0.353921 22.1882 0.353921 21.9842C0.353921 21.6653 0.353921 21.3473 0.353921 21.0285C0.353921 20.8035 0.353921 20.577 0.353921 20.3505C0.353921 20.1698 0.0335563 20.093 0.0335563 19.9123C0.0335563 19.8618 0.012612 19.8122 0.012612 19.7618C0.012612 19.4949 0.012612 19.0691 0.012612 18.8022C0.012612 18.7665 0.012612 18.7301 0.012612 18.6936C0.012612 18.5292 0.353921 18.5013 0.353921 18.3368C0.353921 18.1297 0.353921 17.9249 0.353921 17.7209C0.353921 17.1096 0.353921 16.4945 0.353921 15.8747C0.353921 15.694 0.0335563 15.6172 0.0335563 15.4365C0.0335563 15.386 0.012612 15.3364 0.012612 15.286C0.012612 15.0191 0.012612 14.5933 0.012612 14.3264C0.012612 14.2907 0.012612 14.2543 0.012612 14.2178C0.012612 14.0534 0.353921 14.0255 0.353921 13.861C0.353921 13.0535 0.353921 12.2832 0.353921 11.4385C0.353921 11.3563 0.012612 11.274 0.012612 11.191C0.012612 11.1313 0.012612 11.0724 0.012612 11.0126C0.012612 10.7504 0.012612 10.4867 0.012612 10.2222C0.012612 10.1501 0.012612 10.0779 0.012612 10.005C0.012612 9.91036 0.353921 9.86847 0.353921 9.72109C0.353921 9.49846 0.419079 9.33634 0.516042 9.20292C0.623089 9.05709 0.769697 8.94694 0.913202 8.83136C2.67327 7.41648 5.53173 6.29482 6.99005 5.1716C7.35152 4.89312 7.53924 4.38039 7.53924 3.91729C7.53924 3.31845 7.53924 3.50152 7.53924 2.90268C7.53924 2.86079 7.50046 2.83131 7.464 2.80028C7.4322 2.77391 7.40272 2.74598 7.40272 2.70952C7.40272 2.50862 7.40272 2.52103 7.40272 2.32012C7.40272 2.29453 7.4128 2.27203 7.42677 2.24953C7.46633 2.1898 7.53924 2.13938 7.53924 2.06957C7.53924 1.62975 7.53924 1.3854 7.53924 0.960319C7.03038 0.906019 7.07227 0.532907 7.07227 0.532907V0.352169C7.07227 0.352169 7.07227 0.350617 7.07227 0.349066C7.07227 0.328897 7.0777 0.309505 7.08701 0.290112C7.08934 0.285458 7.09011 0.280804 7.09322 0.27615V0.275374C7.09865 0.26529 7.1064 0.25443 7.11416 0.245122C7.11649 0.242019 7.11881 0.239692 7.12192 0.236589C7.1289 0.228832 7.13588 0.221075 7.14441 0.213318C7.14751 0.210215 7.15062 0.207888 7.15372 0.204785C7.16458 0.195477 7.17622 0.186168 7.1894 0.17686L7.19095 0.176084C7.20492 0.166776 7.22043 0.157467 7.23594 0.148159C7.23982 0.145832 7.24448 0.143505 7.24836 0.141178C7.26154 0.134196 7.27551 0.127215 7.28947 0.120234C7.29412 0.117907 7.298 0.115579 7.30266 0.114028C7.32127 0.105495 7.34066 0.0969626 7.36161 0.0884299C7.51675 0.0271495 8.4282 0 8.59497 0H10.798C10.9647 0 11.8762 0.0271495 12.0313 0.0884299C12.0523 0.0969626 12.0717 0.105495 12.0903 0.114028C12.0949 0.116355 12.0996 0.118682 12.1035 0.120234C12.1174 0.127215 12.1314 0.134196 12.1446 0.141178C12.1485 0.143505 12.1531 0.145832 12.157 0.148159C12.1733 0.157467 12.1888 0.166776 12.202 0.176084L12.2035 0.17686C12.2167 0.186168 12.2284 0.195477 12.2392 0.204785C12.2423 0.207888 12.2454 0.210215 12.2485 0.213318C12.2563 0.221075 12.264 0.228832 12.271 0.236589C12.2734 0.239692 12.2765 0.242019 12.2788 0.245122C12.2865 0.255206 12.2943 0.26529 12.2997 0.275374V0.27615C12.3021 0.280804 12.3036 0.285458 12.3059 0.290112C12.3145 0.309505 12.3207 0.329673 12.3207 0.349066C12.3207 0.349066 12.3207 0.350617 12.3207 0.352169V0.532907C12.3207 0.532907 12.3641 0.908347 11.8537 0.960319C11.8537 1.38463 11.8537 1.62897 11.8537 2.0688C11.8537 2.13783 11.9266 2.18903 11.9654 2.24876C11.9801 2.27048 11.9894 2.29375 11.9894 2.31935C11.9894 2.52025 11.9894 2.50784 11.9894 2.70875C11.9894 2.74521 11.96 2.77313 11.9282 2.79951C11.8917 2.83053 11.8529 2.86001 11.8529 2.9019C11.8529 3.50074 11.8529 3.31768 11.8529 3.91652C11.8529 4.37961 12.0523 4.87761 12.4021 5.17083C13.7014 6.26224 16.7189 7.41571 18.479 8.83059C18.6217 8.94539 18.7683 9.05554 18.8761 9.20215C18.9739 9.33479 19.039 9.49769 19.039 9.72031C19.039 9.86847 19.3803 9.90959 19.3803 10.0042C19.3803 10.0764 19.3803 10.1493 19.3803 10.2214C19.3803 10.4867 19.3803 10.7497 19.3803 11.0119C19.3803 11.0716 19.3803 11.1313 19.3803 11.1903C19.3803 11.2733 19.039 11.3555 19.039 11.4377C19.039 12.2825 19.039 13.0527 19.039 13.8602C19.039 14.0247 19.3803 14.0526 19.3803 14.2171C19.3803 14.2535 19.3803 14.2892 19.3803 14.3257C19.3803 14.5925 19.3803 15.0184 19.3803 15.2852C19.3803 15.3356 19.3803 15.3853 19.3803 15.4357C19.3803 15.6211 19.039 15.6886 19.039 15.874C19.039 16.4937 19.039 17.1089 19.039 17.7201C19.039 17.9241 19.039 18.1289 19.039 18.336C19.039 18.5005 19.3803 18.5284 19.3803 18.6929C19.3803 18.7293 19.3803 18.765 19.3803 18.8015C19.3803 19.0683 19.3803 19.4942 19.3803 19.761C19.3803 19.8114 19.3803 19.8611 19.3803 19.9115C19.3803 20.0969 19.039 20.1644 19.039 20.3498C19.039 20.5763 19.039 20.802 19.039 21.0277C19.039 21.3458 19.039 21.6646 19.039 21.9834C19.039 22.1874 19.039 22.3922 19.039 22.5993C19.039 22.7637 19.3803 22.7917 19.3803 22.9561C19.3803 22.9926 19.3803 23.0282 19.3803 23.0647C19.3803 23.3315 19.3803 23.7574 19.3803 24.0242C19.3803 24.0747 19.3803 24.1243 19.3803 24.1747C19.3803 24.3601 19.039 24.4276 19.039 24.613C19.039 24.8395 19.039 25.0652 19.039 25.291C19.039 25.8642 19.039 26.4406 19.039 27.0223C19.039 27.1806 19.3803 27.1945 19.3803 27.3528C19.3803 27.4707 19.3803 27.5878 19.3803 27.7057C19.3803 27.9066 19.3803 28.1075 19.3803 28.3084C19.3803 28.3666 19.3803 28.4248 19.3803 28.483C19.3803 28.7064 19.039 28.8375 19.039 29.0609C19.039 29.7745 19.039 30.4882 19.039 31.201C19.039 31.3709 19.3803 31.4113 19.3803 31.5811C19.3803 31.6494 19.3997 32.2141 19.3904 32.6733C19.378 33.2512 19.302 33.8508 18.7986 34.1526C18.5472 34.3031 18.2719 34.4179 17.9755 34.4357C17.8204 34.445 17.4341 34.4442 17.279 34.4442C16.4629 34.4442 2.92925 34.4442 2.11399 34.4442C1.95885 34.4442 1.57255 34.445 1.41741 34.4357C1.12109 34.4179 0.845715 34.3031 0.594388 34.1526C0.0909579 33.8508 0.0149393 33.2512 0.00252811 32.6733C-0.0067803 32.2149 0.012612 31.6509 0.012612 31.5819Z" fill="#50BEFF"/>
</svg>
