<svg width="25" height="19" viewBox="0 0 25 19" fill="none" xmlns="http://www.w3.org/2000/svg">
<path fill-rule="evenodd" clip-rule="evenodd" d="M0.42705 6.69739H24.6889C24.6847 3.69315 24.62 2.1284 23.6233 1.13168C22.5573 0.0657349 20.8417 0.0657349 17.4105 0.0657349H7.70549C4.27426 0.0657349 2.55865 0.0657349 1.4927 1.13168C0.495982 2.1284 0.431253 3.69315 0.42705 6.69739ZM24.6892 7.99139H0.426758V10.9838C0.426758 14.4151 0.426758 16.1307 1.4927 17.1966C2.55865 18.2626 4.27426 18.2626 7.70549 18.2626H17.4105C20.8417 18.2626 22.5573 18.2626 23.6233 17.1966C24.6892 16.1307 24.6892 14.4151 24.6892 10.9838V7.99139ZM6.49237 12.763C6.13504 12.763 5.84537 13.0527 5.84537 13.41C5.84537 13.7673 6.13504 14.057 6.49237 14.057H6.5045C6.86183 14.057 7.1515 13.7673 7.1515 13.41C7.1515 13.0527 6.86183 12.763 6.5045 12.763H6.49237Z" fill="#50BEFF"/>
</svg>
