<svg width="26" height="26" viewBox="0 0 26 26" fill="none" xmlns="http://www.w3.org/2000/svg">
<path d="M17.368 14.785C17.027 14.4161 16.6441 14.0884 16.227 13.8085C17.909 12.5082 19.0878 10.6647 19.5625 8.59235C19.5981 8.44239 19.6037 8.28684 19.5789 8.13471C19.5541 7.98257 19.4994 7.83686 19.4179 7.706C19.3364 7.57513 19.2299 7.46171 19.1043 7.37227C18.9788 7.28284 18.8367 7.21917 18.6864 7.18495C18.5361 7.15073 18.3806 7.14663 18.2287 7.17289C18.0768 7.19916 17.9316 7.25526 17.8015 7.33796C17.6714 7.42066 17.559 7.52832 17.4708 7.65471C17.3826 7.78111 17.3202 7.92374 17.2875 8.07435C17.0667 9.04391 16.637 9.95364 16.0285 10.7401C15.42 11.5265 14.6472 12.1708 13.7641 12.6279V8.33569C13.7568 8.24999 13.7395 8.16543 13.7128 8.08369C13.7049 8.01615 13.6912 7.9494 13.672 7.88419C13.6222 7.77762 13.5565 7.67927 13.4771 7.59252C13.4561 7.56919 13.4456 7.53652 13.4235 7.51319C13.338 7.43432 13.2413 7.36865 13.1365 7.31835C13.1061 7.30202 13.084 7.27519 13.0525 7.26235C12.9633 7.23248 12.8708 7.21329 12.7771 7.20519C12.7191 7.18829 12.6598 7.1762 12.5998 7.16902L11.8368 7.16669H11.8333C11.56 7.16475 11.2947 7.25933 11.0843 7.43377C10.8738 7.60821 10.7317 7.85131 10.6829 8.12025C10.6341 8.3892 10.6818 8.66674 10.8175 8.90399C10.9533 9.14124 11.1684 9.32297 11.425 9.41719V15.1222C9.57615 13.2032 8.35186 10.7692 7.91329 8.14085C7.86162 7.83577 7.69087 7.5637 7.4386 7.38451C7.18633 7.20532 6.87321 7.13368 6.56813 7.18535C6.26304 7.23703 5.99097 7.40778 5.81178 7.66005C5.63259 7.91231 5.56095 8.22543 5.61263 8.53052C6.29435 12.5937 8.56006 16.2205 11.9126 18.6152C11.9605 18.6437 12.0104 18.6686 12.062 18.6899C12.1026 18.7135 12.1447 18.7346 12.188 18.7529C12.318 18.8049 12.4563 18.833 12.5963 18.8357C12.768 18.8336 12.9371 18.7929 13.091 18.7167C13.1026 18.7109 13.1155 18.7144 13.1271 18.7085C13.2302 18.6545 13.3246 18.5853 13.4071 18.5032C13.4246 18.4869 13.4351 18.4682 13.4515 18.4507C13.5268 18.3681 13.5896 18.2749 13.6381 18.1742C13.6542 18.1411 13.6686 18.1072 13.6813 18.0727C13.7325 17.9441 13.7602 17.8074 13.763 17.669V15.1887C14.4864 15.4007 15.1382 15.8061 15.6483 16.3612L17.5698 18.4577C17.779 18.6857 18.0702 18.8213 18.3793 18.8347C18.6885 18.848 18.9903 18.738 19.2183 18.5289C19.4463 18.3197 19.5819 18.0285 19.5953 17.7193C19.6086 17.4102 19.4986 17.1084 19.2895 16.8804L17.368 14.785ZM16.5851 0.166687H9.42646C2.24329 0.166687 0.166626 2.24102 0.166626 9.41485V16.5735C0.166626 23.7567 2.24096 25.8334 9.41479 25.8334H16.5735C23.7566 25.8334 25.8333 23.759 25.8333 16.5852V9.42652C25.8333 2.24335 23.759 0.166687 16.5851 0.166687ZM23.5 16.5852C23.5 22.4652 22.464 23.5 16.5723 23.5H9.41596C3.53479 23.5 2.49996 22.464 2.49996 16.5724V9.41602C2.49996 3.53485 3.53596 2.50002 9.42763 2.50002H16.5851C22.4651 2.50002 23.5 3.53602 23.5 9.42769V16.5852Z" fill="white"/>
</svg>
