<svg width="29" height="30" viewBox="0 0 29 30" fill="none" xmlns="http://www.w3.org/2000/svg">
<circle cx="14.4063" cy="15.3844" r="14.4063" fill="#67C0FF"/>
<path d="M14.5219 4.97687C10.4495 4.97687 7.15576 8.2706 7.15576 12.343C7.15576 17.8677 14.5219 26.0231 14.5219 26.0231C14.5219 26.0231 21.8881 17.8677 21.8881 12.343C21.8881 8.2706 18.5944 4.97687 14.5219 4.97687ZM9.26038 12.343C9.26038 9.43867 11.6176 7.08149 14.5219 7.08149C17.4263 7.08149 19.7835 9.43867 19.7835 12.343C19.7835 15.3737 16.7528 19.9092 14.5219 22.7399C12.3331 19.9302 9.26038 15.3421 9.26038 12.343Z" fill="white"/>
<path d="M14.5219 14.9738C15.9748 14.9738 17.1527 13.796 17.1527 12.3431C17.1527 10.8901 15.9748 9.71228 14.5219 9.71228C13.069 9.71228 11.8911 10.8901 11.8911 12.3431C11.8911 13.796 13.069 14.9738 14.5219 14.9738Z" fill="white"/>
</svg>
