<svg width="29" height="30" viewBox="0 0 29 30" fill="none" xmlns="http://www.w3.org/2000/svg">
<circle cx="14.4063" cy="15.3953" r="14.4063" fill="#67C0FF"/>
<g clip-path="url(#clip0_2_1714)">
<path d="M20.6977 8.667C18.9758 6.93594 16.6831 5.98755 14.2431 5.98755C9.21565 5.98755 5.11822 10.085 5.11822 15.1124C5.11822 16.7238 5.54177 18.2891 6.33364 19.6702L5.04456 24.403L9.87861 23.1323C11.2137 23.8597 12.7146 24.2465 14.2431 24.2465C19.2705 24.2465 23.3679 20.149 23.3679 15.1216C23.3679 12.6816 22.4195 10.3888 20.6977 8.667ZM14.2431 22.6996C12.8803 22.6996 11.5452 22.3313 10.3758 21.6407L10.0996 21.4749L7.22679 22.23L7.99103 19.4308L7.80687 19.1454C7.05184 17.9392 6.6467 16.5396 6.6467 15.1124C6.6467 10.9321 10.0536 7.52524 14.2339 7.52524C16.2596 7.52524 18.1656 8.3171 19.5928 9.75351C21.0292 11.1899 21.8118 13.0959 21.8118 15.1216C21.8302 19.3019 18.4234 22.6996 14.2431 22.6996ZM18.405 17.0276C18.1748 16.9171 17.0514 16.3647 16.8489 16.2818C16.6371 16.2081 16.4898 16.1713 16.3332 16.3923C16.1767 16.6225 15.7439 17.1381 15.615 17.2854C15.4861 17.442 15.348 17.4604 15.1178 17.3407C14.8876 17.2302 14.151 16.9816 13.2855 16.2081C12.6041 15.6004 12.1529 14.8546 12.0148 14.6244C11.8859 14.3942 11.9964 14.2745 12.1161 14.1548C12.2174 14.0535 12.3463 13.8878 12.4568 13.7589C12.5673 13.63 12.6133 13.5287 12.687 13.3814C12.7606 13.2248 12.7238 13.0959 12.6686 12.9854C12.6133 12.8749 12.1529 11.7516 11.9688 11.2912C11.7846 10.8492 11.5912 10.9045 11.4531 10.8953C11.315 10.8953 11.1677 10.8953 11.0112 10.8953C10.8546 10.8953 10.6152 10.9505 10.4035 11.1807C10.2009 11.4109 9.61159 11.9634 9.61159 13.0867C9.61159 14.21 10.4311 15.2966 10.5416 15.4439C10.6521 15.6004 12.1529 17.9023 14.4364 18.8876C14.9797 19.127 15.4032 19.2651 15.7347 19.3664C16.278 19.5413 16.7752 19.5137 17.1711 19.4584C17.6131 19.394 18.5247 18.906 18.7088 18.3719C18.9022 17.8379 18.9022 17.3867 18.8377 17.2854C18.7733 17.1841 18.6352 17.1381 18.405 17.0276Z" fill="white"/>
</g>
<defs>
<clipPath id="clip0_2_1714">
<rect width="22.0985" height="22.0985" fill="white" transform="translate(3.15698 4.146)"/>
</clipPath>
</defs>
</svg>
