<svg width="24" height="25" viewBox="0 0 24 25" fill="none" xmlns="http://www.w3.org/2000/svg">
<path d="M7.09998 0.401794H16.9C20.6333 0.401794 23.6666 3.52412 23.6666 7.36697V17.4545C23.6666 19.3018 22.9537 21.0734 21.6847 22.3796C20.4157 23.6858 18.6946 24.4197 16.9 24.4197H7.09998C3.36665 24.4197 0.333313 21.2973 0.333313 17.4545V7.36697C0.333313 5.51969 1.04623 3.74807 2.31522 2.44185C3.58422 1.13562 5.30535 0.401794 7.09998 0.401794ZM6.86665 2.80358C5.75274 2.80358 4.68445 3.25906 3.8968 4.06982C3.10915 4.88058 2.66665 5.98021 2.66665 7.12679V17.6947C2.66665 20.0844 4.54498 22.0179 6.86665 22.0179H17.1333C18.2472 22.0179 19.3155 21.5624 20.1032 20.7516C20.8908 19.9409 21.3333 18.8412 21.3333 17.6947V7.12679C21.3333 4.73702 19.455 2.80358 17.1333 2.80358H6.86665ZM18.125 4.60492C18.5118 4.60492 18.8827 4.76307 19.1562 5.04459C19.4297 5.3261 19.5833 5.70791 19.5833 6.10604C19.5833 6.50416 19.4297 6.88597 19.1562 7.16748C18.8827 7.449 18.5118 7.60715 18.125 7.60715C17.7382 7.60715 17.3673 7.449 17.0938 7.16748C16.8203 6.88597 16.6666 6.50416 16.6666 6.10604C16.6666 5.70791 16.8203 5.3261 17.0938 5.04459C17.3673 4.76307 17.7382 4.60492 18.125 4.60492ZM12 6.40626C13.5471 6.40626 15.0308 7.03887 16.1248 8.16493C17.2187 9.29098 17.8333 10.8182 17.8333 12.4107C17.8333 14.0032 17.2187 15.5305 16.1248 16.6565C15.0308 17.7826 13.5471 18.4152 12 18.4152C10.4529 18.4152 8.96915 17.7826 7.87519 16.6565C6.78123 15.5305 6.16665 14.0032 6.16665 12.4107C6.16665 10.8182 6.78123 9.29098 7.87519 8.16493C8.96915 7.03887 10.4529 6.40626 12 6.40626ZM12 8.80804C11.0717 8.80804 10.1815 9.18761 9.52511 9.86324C8.86873 10.5389 8.49998 11.4552 8.49998 12.4107C8.49998 13.3662 8.86873 14.2826 9.52511 14.9582C10.1815 15.6338 11.0717 16.0134 12 16.0134C12.9282 16.0134 13.8185 15.6338 14.4749 14.9582C15.1312 14.2826 15.5 13.3662 15.5 12.4107C15.5 11.4552 15.1312 10.5389 14.4749 9.86324C13.8185 9.18761 12.9282 8.80804 12 8.80804Z" fill="white"/>
</svg>
