<svg width="30" height="29" viewBox="0 0 30 29" fill="none" xmlns="http://www.w3.org/2000/svg">
<circle cx="15.0377" cy="14.4063" r="14.4063" fill="#67C0FF"/>
<path d="M11.2111 13.7416C12.3029 15.8874 14.062 17.6465 16.2078 18.7383L17.8759 17.0702C18.0882 16.8579 18.3839 16.7973 18.6493 16.8807C19.4985 17.1612 20.4084 17.3129 21.3562 17.3129C21.5573 17.3129 21.7501 17.3928 21.8923 17.535C22.0345 17.6771 22.1144 17.87 22.1144 18.0711V20.7249C22.1144 20.926 22.0345 21.1189 21.8923 21.261C21.7501 21.4032 21.5573 21.4831 21.3562 21.4831C17.9376 21.4831 14.659 20.1251 12.2417 17.7078C9.82435 15.2904 8.46631 12.0119 8.46631 8.59325C8.46631 8.39216 8.54619 8.1993 8.68839 8.0571C8.83058 7.91491 9.02344 7.83502 9.22454 7.83502H11.8783C12.0794 7.83502 12.2723 7.91491 12.4145 8.0571C12.5567 8.1993 12.6366 8.39216 12.6366 8.59325C12.6366 9.54103 12.7882 10.4509 13.0688 11.3001C13.1522 11.5655 13.0915 11.8612 12.8792 12.0735L11.2111 13.7416Z" fill="white"/>
</svg>
