<svg width="47" height="46" viewBox="0 0 47 46" fill="none" xmlns="http://www.w3.org/2000/svg">
<circle cx="23.1851" cy="23.0196" r="22.817" fill="#67C0FF"/>
<path d="M17.1247 21.967C18.854 25.3655 21.6401 28.1516 25.0386 29.8809L27.6805 27.2389C28.0168 26.9027 28.4851 26.8066 28.9055 26.9387C30.2505 27.383 31.6915 27.6232 33.1926 27.6232C33.5111 27.6232 33.8166 27.7497 34.0418 27.975C34.267 28.2002 34.3935 28.5056 34.3935 28.8241V33.0272C34.3935 33.3457 34.267 33.6512 34.0418 33.8764C33.8166 34.1016 33.5111 34.2281 33.1926 34.2281C27.7782 34.2281 22.5855 32.0773 18.7569 28.2487C14.9283 24.4201 12.7775 19.2274 12.7775 13.813C12.7775 13.4945 12.904 13.189 13.1292 12.9638C13.3544 12.7386 13.6599 12.6121 13.9784 12.6121H18.1815C18.5 12.6121 18.8054 12.7386 19.0306 12.9638C19.2559 13.189 19.3824 13.4945 19.3824 13.813C19.3824 15.3141 19.6226 16.7551 20.0669 18.1001C20.199 18.5205 20.1029 18.9888 19.7667 19.3251L17.1247 21.967Z" fill="white"/>
</svg>
