<svg width="49" height="48" viewBox="0 0 49 48" fill="none" xmlns="http://www.w3.org/2000/svg">
<circle cx="23.1851" cy="24.0191" r="22.817" fill="#67C0FF"/>
<path d="M24.0078 48C37.2626 48 48.0078 37.2548 48.0078 24C48.0078 10.7452 37.2626 0 24.0078 0C10.753 0 0.0078125 10.7452 0.0078125 24C0.0078125 37.2548 10.753 48 24.0078 48Z" fill="#25D366"/>
<path fill-rule="evenodd" clip-rule="evenodd" d="M24.7989 37.3526H24.793C22.4045 37.3517 20.0576 36.7525 17.9732 35.6155L10.4078 37.6L12.4325 30.2049C11.1836 28.0406 10.5264 25.5855 10.5275 23.0703C10.5306 15.2017 16.9327 8.80005 24.7988 8.80005C28.6165 8.8017 32.1997 10.2879 34.894 12.9855C37.5884 15.6829 39.0715 19.2684 39.07 23.0816C39.0668 30.9483 32.6673 37.3494 24.7989 37.3526ZM18.3237 33.0319L18.7568 33.289C20.578 34.3697 22.6656 34.9416 24.7941 34.9424H24.7989C31.3367 34.9424 36.6578 29.6212 36.6604 23.0807C36.6616 19.9113 35.429 16.9311 33.1895 14.689C30.95 12.4469 27.9718 11.2116 24.8036 11.2105C18.2608 11.2105 12.9396 16.5312 12.937 23.0711C12.9361 25.3124 13.5632 27.4952 14.7506 29.3837L15.0326 29.8325L13.8343 34.2096L18.3237 33.0319ZM31.5002 26.1541C31.749 26.2743 31.9169 26.3555 31.9886 26.4752C32.0777 26.6239 32.0777 27.3378 31.7807 28.1709C31.4835 29.0038 30.0589 29.764 29.3737 29.8664C28.7594 29.9582 27.982 29.9965 27.1278 29.7251C26.6099 29.5608 25.9457 29.3414 25.0949 28.9739C21.752 27.5305 19.4929 24.2904 19.0659 23.6781C19.036 23.6352 19.0151 23.6052 19.0034 23.5896L19.0005 23.5858C18.8118 23.334 17.5474 21.6469 17.5474 19.9008C17.5474 18.2583 18.3542 17.3974 18.7256 17.0011C18.751 16.9739 18.7744 16.9489 18.7954 16.9261C19.1222 16.5691 19.5086 16.4798 19.7463 16.4798C19.984 16.4798 20.222 16.482 20.4297 16.4924C20.4553 16.4937 20.482 16.4936 20.5096 16.4934C20.7174 16.4922 20.9764 16.4907 21.232 17.1046C21.3303 17.3408 21.4742 17.6911 21.6259 18.0605C21.9328 18.8075 22.2718 19.6328 22.3314 19.7523C22.4206 19.9308 22.48 20.1389 22.3612 20.377C22.3433 20.4127 22.3268 20.4464 22.3111 20.4786C22.2218 20.6608 22.1561 20.7949 22.0046 20.9718C21.945 21.0414 21.8834 21.1164 21.8219 21.1914C21.6992 21.3408 21.5765 21.4902 21.4697 21.5966C21.2912 21.7744 21.1054 21.9673 21.3134 22.3243C21.5214 22.6813 22.237 23.849 23.2971 24.7945C24.4366 25.8109 25.427 26.2405 25.929 26.4583C26.027 26.5008 26.1065 26.5353 26.1647 26.5644C26.5212 26.743 26.7292 26.7131 26.9372 26.4752C27.1452 26.2372 27.8286 25.4339 28.0663 25.077C28.304 24.7201 28.5418 24.7796 28.8686 24.8985C29.1955 25.0176 30.9486 25.8802 31.3052 26.0586C31.3748 26.0935 31.4399 26.125 31.5002 26.1541Z" fill="#FDFDFD"/>
</svg>
