<svg width="49" height="48" viewBox="0 0 49 48" fill="none" xmlns="http://www.w3.org/2000/svg">
<circle cx="24.1851" cy="24.0191" r="22.817" fill="#67C0FF"/>
<circle cx="24.0078" cy="24" r="24" fill="white"/>
<path d="M30.4748 8H17.5408C12.2843 8 8.00781 12.2765 8.00781 17.533V30.467C8.00781 35.7235 12.2843 40 17.5408 40H30.4748C35.7313 40 40.0078 35.7235 40.0078 30.467V17.533C40.0078 12.2765 35.7313 8 30.4748 8ZM36.7886 30.467C36.7886 33.954 33.9618 36.7808 30.4748 36.7808H17.5408C14.0538 36.7808 11.227 33.954 11.227 30.467V17.533C11.227 14.0459 14.0538 11.2192 17.5408 11.2192H30.4748C33.9618 11.2192 36.7886 14.0459 36.7886 17.533V30.467Z" fill="url(#paint0_linear_2_1703)"/>
<path d="M24.0078 15.7236C19.4442 15.7236 15.7314 19.4364 15.7314 23.9999C15.7314 28.5634 19.4442 32.2763 24.0078 32.2763C28.5714 32.2763 32.2841 28.5635 32.2841 23.9999C32.2841 19.4363 28.5714 15.7236 24.0078 15.7236ZM24.0078 29.0571C21.2148 29.0571 18.9506 26.793 18.9506 24C18.9506 21.207 21.2148 18.9428 24.0078 18.9428C26.8008 18.9428 29.0649 21.207 29.0649 24C29.0649 26.7929 26.8007 29.0571 24.0078 29.0571Z" fill="url(#paint1_linear_2_1703)"/>
<path d="M32.3002 17.7691C33.3955 17.7691 34.2834 16.8812 34.2834 15.7859C34.2834 14.6906 33.3955 13.8027 32.3002 13.8027C31.2049 13.8027 30.317 14.6906 30.317 15.7859C30.317 16.8812 31.2049 17.7691 32.3002 17.7691Z" fill="url(#paint2_linear_2_1703)"/>
<defs>
<linearGradient id="paint0_linear_2_1703" x1="24.0078" y1="39.9069" x2="24.0078" y2="8.24855" gradientUnits="userSpaceOnUse">
<stop stop-color="#E09B3D"/>
<stop offset="0.3" stop-color="#C74C4D"/>
<stop offset="0.6" stop-color="#C21975"/>
<stop offset="1" stop-color="#7024C4"/>
</linearGradient>
<linearGradient id="paint1_linear_2_1703" x1="24.0078" y1="39.9068" x2="24.0078" y2="8.24852" gradientUnits="userSpaceOnUse">
<stop stop-color="#E09B3D"/>
<stop offset="0.3" stop-color="#C74C4D"/>
<stop offset="0.6" stop-color="#C21975"/>
<stop offset="1" stop-color="#7024C4"/>
</linearGradient>
<linearGradient id="paint2_linear_2_1703" x1="32.3002" y1="39.907" x2="32.3002" y2="8.24867" gradientUnits="userSpaceOnUse">
<stop stop-color="#E09B3D"/>
<stop offset="0.3" stop-color="#C74C4D"/>
<stop offset="0.6" stop-color="#C21975"/>
<stop offset="1" stop-color="#7024C4"/>
</linearGradient>
</defs>
</svg>
